<?xml version="1.0" encoding="utf-8"?>
<!-- Generator: Adobe Illustrator 22.0.0, SVG Export Plug-In . SVG Version: 6.00 Build 0)  -->
<svg version="1.1" id="Layer_1" xmlns="http://www.w3.org/2000/svg" xmlns:xlink="http://www.w3.org/1999/xlink" x="0px" y="0px"
	 viewBox="0 0 414 435" style="enable-background:new 0 0 414 435;" xml:space="preserve">
<style type="text/css">
	.st0{fill:url(#SVGID_1_);}
	.st1{fill:url(#SVGID_2_);}
	.st2{fill:url(#SVGID_3_);}
	.st3{fill:url(#SVGID_4_);}
	.st4{fill:url(#SVGID_5_);}
	.st5{fill:url(#SVGID_6_);}
	.st6{fill:url(#SVGID_7_);}
	.st7{fill:url(#SVGID_8_);}
	.st8{fill:url(#SVGID_9_);}
	.st9{fill:url(#SVGID_10_);}
	.st10{fill:url(#SVGID_11_);}
	.st11{fill:url(#SVGID_12_);}
	.st12{fill:url(#SVGID_13_);}
	.st13{fill:url(#SVGID_14_);}
	.st14{fill:url(#SVGID_15_);}
	.st15{fill:url(#SVGID_16_);}
</style>
<g>
	<linearGradient id="SVGID_1_" gradientUnits="userSpaceOnUse" x1="205.8246" y1="250.113" x2="145.0731" y2="95.7246">
		<stop  offset="0" style="stop-color:#00ECC7"/>
		<stop  offset="0.5207" style="stop-color:#FC00CA"/>
		<stop  offset="1" style="stop-color:#EFC400"/>
	</linearGradient>
	<polygon class="st0" points="200.8,141.8 154.3,95.3 154.3,214.9 200.7,261.2 	"/>
	<g>
		<linearGradient id="SVGID_2_" gradientUnits="userSpaceOnUse" x1="7.1246" y1="124.091" x2="141.9125" y2="124.091">
			<stop  offset="0" style="stop-color:#EFC400"/>
			<stop  offset="0.4793" style="stop-color:#FC00CA"/>
			<stop  offset="1" style="stop-color:#00ECC7"/>
		</linearGradient>
		<polygon class="st1" points="141.9,118.6 141.9,129.6 7.9,129.6 7.1,129.5 18.8,118.6 		"/>
	</g>
	<linearGradient id="SVGID_3_" gradientUnits="userSpaceOnUse" x1="59.47" y1="199.236" x2="122.1264" y2="136.5795">
		<stop  offset="0" style="stop-color:#EFC400"/>
		<stop  offset="0.4793" style="stop-color:#FC00CA"/>
		<stop  offset="1" style="stop-color:#00ECC7"/>
	</linearGradient>
	<polygon class="st2" points="56.4,142 141.9,142 141.9,191.5 91.6,191.5 42.1,142 	"/>
	<linearGradient id="SVGID_4_" gradientUnits="userSpaceOnUse" x1="41.5001" y1="191.4741" x2="41.5001" y2="141.9635">
		<stop  offset="0" style="stop-color:#EFC400"/>
		<stop  offset="0.4793" style="stop-color:#FC00CA"/>
		<stop  offset="1" style="stop-color:#00ECC7"/>
	</linearGradient>
	<polygon class="st3" points="74,191.5 58.5,191.5 9,142 24.5,142 	"/>
	<linearGradient id="SVGID_5_" gradientUnits="userSpaceOnUse" x1="206.9435" y1="130.3242" x2="206.9435" y2="54.7148">
		<stop  offset="0" style="stop-color:#EFC400"/>
		<stop  offset="0.4793" style="stop-color:#FC00CA"/>
		<stop  offset="1" style="stop-color:#00ECC7"/>
	</linearGradient>
	<polygon class="st4" points="259.5,77.7 154.3,77.7 206.9,130.3 	"/>
	<linearGradient id="SVGID_6_" gradientUnits="userSpaceOnUse" x1="209.1018" y1="427.0736" x2="263.97" y2="372.2054">
		<stop  offset="0" style="stop-color:#EFC400"/>
		<stop  offset="0.4793" style="stop-color:#FC00CA"/>
		<stop  offset="1" style="stop-color:#00ECC7"/>
	</linearGradient>
	<polygon class="st5" points="259.5,385.3 213.1,431.1 213.1,414.5 259.7,367.9 	"/>
	<linearGradient id="SVGID_7_" gradientUnits="userSpaceOnUse" x1="207.8349" y1="266.9061" x2="258.7315" y2="108.7256">
		<stop  offset="0" style="stop-color:#EFC400"/>
		<stop  offset="0.4793" style="stop-color:#FC00CA"/>
		<stop  offset="1" style="stop-color:#00ECC7"/>
	</linearGradient>
	<polygon class="st6" points="213.1,141.7 259.5,95.3 259.5,215 213.1,261.4 	"/>
	<linearGradient id="SVGID_8_" gradientUnits="userSpaceOnUse" x1="372.4999" y1="191.4741" x2="372.4999" y2="141.9635">
		<stop  offset="0" style="stop-color:#EFC400"/>
		<stop  offset="0.4793" style="stop-color:#FC00CA"/>
		<stop  offset="1" style="stop-color:#00ECC7"/>
	</linearGradient>
	<polygon class="st7" points="340,191.5 355.5,191.5 405,142 389.5,142 	"/>
	<linearGradient id="SVGID_9_" gradientUnits="userSpaceOnUse" x1="63.0811" y1="55.036" x2="350.8061" y2="55.036">
		<stop  offset="0" style="stop-color:#EFC400"/>
		<stop  offset="0.4793" style="stop-color:#FC00CA"/>
		<stop  offset="1" style="stop-color:#00ECC7"/>
	</linearGradient>
	<path class="st8" d="M78.9,106.2C98.9,55,148.8,18.7,206.9,18.7c58.2,0,108,36.3,128.1,87.5h15.8C330.1,46.7,273.4,3.9,206.9,3.9
		S83.8,46.7,63.1,106.2H78.9z"/>
	<linearGradient id="SVGID_10_" gradientUnits="userSpaceOnUse" x1="43.6538" y1="186.0492" x2="149.459" y2="298.7249">
		<stop  offset="0" style="stop-color:#EFC400"/>
		<stop  offset="0.4793" style="stop-color:#FC00CA"/>
		<stop  offset="1" style="stop-color:#00ECC7"/>
	</linearGradient>
	<path class="st9" d="M141.9,277.3c-29.3-15.8-52.3-41.9-64-73.4H62.3c13.1,39.7,42.2,72.3,79.6,90V277.3z"/>
	<linearGradient id="SVGID_11_" gradientUnits="userSpaceOnUse" x1="431.5217" y1="248.9248" x2="313.3497" y2="248.9248">
		<stop  offset="0" style="stop-color:#EFC400"/>
		<stop  offset="0.4793" style="stop-color:#FC00CA"/>
		<stop  offset="1" style="stop-color:#00ECC7"/>
	</linearGradient>
	<path class="st10" d="M335.9,203.9c-11.7,31.5-34.7,57.6-64,73.4v16.6c37.4-17.7,66.5-50.3,79.6-90H335.9z"/>
	<g>
		<linearGradient id="SVGID_12_" gradientUnits="userSpaceOnUse" x1="272.0875" y1="124.091" x2="406.8754" y2="124.091">
			<stop  offset="0" style="stop-color:#EFC400"/>
			<stop  offset="0.4793" style="stop-color:#FC00CA"/>
			<stop  offset="1" style="stop-color:#00ECC7"/>
		</linearGradient>
		<polygon class="st11" points="272.1,118.6 272.1,129.6 406.1,129.6 406.9,129.5 395.2,118.6 		"/>
	</g>
	<linearGradient id="SVGID_13_" gradientUnits="userSpaceOnUse" x1="177.5618" y1="396.9358" x2="177.5618" y2="243.1476">
		<stop  offset="0" style="stop-color:#EFC400"/>
		<stop  offset="0.4793" style="stop-color:#FC00CA"/>
		<stop  offset="1" style="stop-color:#00ECC7"/>
	</linearGradient>
	<polygon class="st12" points="165.2,243.1 154.3,254.3 154.4,351.5 200.8,396.9 200.8,278.8 	"/>
	<radialGradient id="SVGID_14_" cx="254.6549" cy="305.419" r="93.969" fx="348.5305" fy="301.229" gradientUnits="userSpaceOnUse">
		<stop  offset="0" style="stop-color:#EFC400"/>
		<stop  offset="0.4793" style="stop-color:#FC00CA"/>
		<stop  offset="1" style="stop-color:#00ECC7"/>
	</radialGradient>
	<polygon class="st13" points="248.9,243.2 259.5,254.3 259.5,350.5 213.1,396.9 213.1,279 	"/>
	<linearGradient id="SVGID_15_" gradientUnits="userSpaceOnUse" x1="284.9006" y1="129.6065" x2="357.8832" y2="202.5892">
		<stop  offset="0" style="stop-color:#EFC400"/>
		<stop  offset="0.4793" style="stop-color:#FC00CA"/>
		<stop  offset="1" style="stop-color:#00ECC7"/>
	</linearGradient>
	<polygon class="st14" points="357.6,142 272.1,142 272.1,191.5 322.4,191.5 371.9,142 	"/>
	<linearGradient id="SVGID_16_" gradientUnits="userSpaceOnUse" x1="177.5211" y1="431.1009" x2="177.5211" y2="368.1139">
		<stop  offset="0" style="stop-color:#EFC400"/>
		<stop  offset="0.4793" style="stop-color:#FC00CA"/>
		<stop  offset="1" style="stop-color:#00ECC7"/>
	</linearGradient>
	<polygon class="st15" points="154.3,385 200.7,431.1 200.7,414.5 154.3,368.1 	"/>
</g>
</svg>
